<svg width="32" height="32" viewBox="0 0 32 32" fill="none" xmlns="http://www.w3.org/2000/svg">
<path d="M22.4103 14.5925C20.5657 12.9872 18.1726 12 15.5302 12C11.3821 12 7.81243 14.413 6.11732 17.913C5.79824 18.581 6.1572 19.3787 6.86516 19.618C7.45347 19.8175 8.09163 19.5383 8.36085 18.9799C9.65711 16.3275 12.3793 14.4928 15.5302 14.4928C17.4746 14.4928 19.2495 15.2107 20.6355 16.3674L18.731 18.2719C18.1028 18.9001 18.5415 19.977 19.4289 19.977H25.0029C25.5513 19.977 26 19.5283 26 18.9799V13.4059C26 12.5185 24.9231 12.0698 24.2949 12.698L22.4103 14.5925Z" fill="white"/>
</svg>
