<svg width="32" height="32" viewBox="0 0 32 32" fill="none" xmlns="http://www.w3.org/2000/svg">
<path d="M16.4646 12C13.8235 12 11.4316 12.9867 9.58783 14.5912L7.7042 12.7076C7.07633 12.0797 5.99997 12.5182 5.99997 13.4052V18.9764C5.99997 19.5245 6.44845 19.973 6.9966 19.973H12.5678C13.4548 19.973 13.9032 18.8967 13.2754 18.2688L11.3718 16.3652C12.7571 15.2091 14.5211 14.4916 16.4745 14.4916C19.6239 14.4916 22.3447 16.3254 23.6403 18.9764C23.9094 19.5345 24.5472 19.8136 25.1352 19.6142C25.8428 19.385 26.2016 18.5777 25.8827 17.9C24.1685 14.4118 20.6006 12 16.4646 12Z" fill="white"/>
</svg>
