<svg width="32" height="32" viewBox="0 0 32 32" fill="none" xmlns="http://www.w3.org/2000/svg">
<path d="M24 5.33334V4.00001C24 3.26667 23.4 2.66667 22.6667 2.66667H6.66668C5.93334 2.66667 5.33334 3.26667 5.33334 4.00001V9.33334C5.33334 10.0667 5.93334 10.6667 6.66668 10.6667H22.6667C23.4 10.6667 24 10.0667 24 9.33334V8.00001H25.3333V13.3333H13.3333C12.6 13.3333 12 13.9333 12 14.6667V28C12 28.7333 12.6 29.3333 13.3333 29.3333H16C16.7333 29.3333 17.3333 28.7333 17.3333 28V16H26.6667C27.4 16 28 15.4 28 14.6667V6.66667C28 5.93334 27.4 5.33334 26.6667 5.33334H24Z" fill="black"/>
</svg>
