<svg width="300" height="300" viewBox="0 0 300 300" fill="none" xmlns="http://www.w3.org/2000/svg">
<rect x="0.5" y="0.5" width="99" height="99" fill="white" stroke="black"/>
<path d="M52.98 36.96C55.18 36.96 56.98 35.16 56.98 32.96C56.98 30.76 55.18 28.96 52.98 28.96C50.78 28.96 48.98 30.76 48.98 32.96C48.98 35.16 50.78 36.96 52.98 36.96ZM46.64 60.96L47.78 55.96L51.98 59.96V69.96C51.98 71.06 52.88 71.96 53.98 71.96C55.08 71.96 55.98 71.06 55.98 69.96V58.68C55.98 57.58 55.54 56.54 54.74 55.78L51.78 52.96L52.98 46.96C55.12 49.44 58.22 51.22 61.7 51.78C62.9 51.96 63.98 51 63.98 49.78C63.98 48.8 63.26 47.98 62.28 47.82C59.24 47.32 56.72 45.52 55.38 43.16L53.38 39.96C52.58 38.76 51.38 37.96 49.98 37.96C49.38 37.96 48.98 38.16 48.38 38.16L40.42 41.52C38.94 42.16 37.98 43.6 37.98 45.22V49.96C37.98 51.06 38.88 51.96 39.98 51.96C41.08 51.96 41.98 51.06 41.98 49.96V45.16L45.58 43.76L42.38 59.96L34.54 58.36C33.46 58.14 32.4 58.84 32.18 59.92V60C31.96 61.08 32.66 62.14 33.74 62.36L41.96 64C44.08 64.42 46.16 63.08 46.64 60.96V60.96Z" fill="black"/>
<rect x="100.5" y="0.5" width="99" height="99" fill="white" stroke="black"/>
<rect x="200.5" y="0.5" width="99" height="99" fill="black" stroke="black"/>
<rect x="0.5" y="100.5" width="99" height="99" fill="white" stroke="black"/>
<rect x="100.5" y="100.5" width="99" height="99" fill="black" stroke="black"/>
<rect x="200.5" y="100.5" width="99" height="99" fill="white" stroke="black"/>
<rect x="0.5" y="200.5" width="99" height="99" fill="black" stroke="black"/>
<rect x="100.5" y="200.5" width="99" height="99" fill="white" stroke="black"/>
<rect x="200.5" y="200.5" width="99" height="99" fill="black" stroke="black"/>
</svg>
