<svg width="32" height="32" viewBox="0 0 32 32" fill="none" xmlns="http://www.w3.org/2000/svg">
<path d="M20 20H22C22.55 20 23 20.45 23 21C23 21.55 22.55 22 22 22H20C19.45 22 19 21.55 19 21C19 20.45 19.45 20 20 20ZM20 12H25C25.55 12 26 12.45 26 13C26 13.55 25.55 14 25 14H20C19.45 14 19 13.55 19 13C19 12.45 19.45 12 20 12ZM20 16H24C24.55 16 25 16.45 25 17C25 17.55 24.55 18 24 18H20C19.45 18 19 17.55 19 17C19 16.45 19.45 16 20 16ZM6.99997 22C6.99997 23.1 7.89997 24 8.99997 24H15C16.1 24 17 23.1 17 22V12H6.99997V22ZM17 9H15L14.29 8.29C14.11 8.11 13.85 8 13.59 8H10.41C10.15 8 9.88997 8.11 9.70997 8.29L8.99997 9H6.99997C6.44997 9 5.99997 9.45 5.99997 10C5.99997 10.55 6.44997 11 6.99997 11H17C17.55 11 18 10.55 18 10C18 9.45 17.55 9 17 9Z" fill="white"/>
</svg>
