<svg width="32" height="32" viewBox="0 0 32 32" fill="none" xmlns="http://www.w3.org/2000/svg">
<path d="M21.4612 8.06588V7.03294C21.4612 6.46482 20.9964 6 20.4282 6H8.03294C7.46482 6 7 6.46482 7 7.03294V11.1647C7 11.7328 7.46482 12.1976 8.03294 12.1976H20.4282C20.9964 12.1976 21.4612 11.7328 21.4612 11.1647V10.1318H22.4941V14.2635H13.1976C12.6295 14.2635 12.1647 14.7284 12.1647 15.2965V25.6259C12.1647 26.194 12.6295 26.6588 13.1976 26.6588H15.2635C15.8316 26.6588 16.2965 26.194 16.2965 25.6259V16.3294H23.5271C24.0952 16.3294 24.56 15.8646 24.56 15.2965V9.09882C24.56 8.53071 24.0952 8.06588 23.5271 8.06588H21.4612Z" fill="black"/>
</svg>
