<?xml version="1.0" standalone="no"?>
<!DOCTYPE svg PUBLIC "-//W3C//DTD SVG 20010904//EN"
 "http://www.w3.org/TR/2001/REC-SVG-20010904/DTD/svg10.dtd">
<svg version="1.0" xmlns="http://www.w3.org/2000/svg"
 width="700.000000pt" height="700.000000pt" viewBox="0 0 700.000000 700.000000"
 preserveAspectRatio="xMidYMid meet">
<metadata>
Created by potrace 1.11, written by Peter Selinger 2001-2013
</metadata>
<g transform="translate(0.000000,700.000000) scale(0.100000,-0.100000)"
fill="#000000" stroke="none">
<path d="M0 3500 l0 -3500 3500 0 3500 0 0 3500 0 3500 -3500 0 -3500 0 0
-3500z m2310 2335 l0 -1145 -1145 0 -1145 0 0 1138 c0 626 3 1142 7 1145 3 4
519 7 1145 7 l1138 0 0 -1145z m4668 -2 l2 -1143 -1145 0 -1145 0 0 1145 0
1145 1143 -2 1142 -3 3 -1142z m-2338 -2333 l0 -1140 -1140 0 -1140 0 0 1140
0 1140 1140 0 1140 0 0 -1140z m-2330 -2335 l0 -1145 -1143 2 -1142 3 -3 1143
-2 1142 1145 0 1145 0 0 -1145z m4668 3 l-3 -1143 -1142 -3 -1143 -2 0 1145 0
1145 1145 0 1145 0 -2 -1142z"/>
<path d="M1177 6300 c-34 -27 -43 -70 -23 -109 31 -60 99 -70 147 -22 37 37
38 79 3 120 -32 38 -87 43 -127 11z"/>
<path d="M1030 6069 c-128 -53 -140 -68 -140 -173 0 -87 8 -106 47 -106 31 0
43 28 43 98 l0 59 40 16 c22 8 40 12 40 7 0 -13 -69 -362 -72 -365 -2 -2 -45
5 -97 16 -106 22 -128 19 -137 -18 -10 -38 14 -53 112 -74 118 -24 165 -24
192 1 20 19 26 34 49 130 l9 34 47 -43 47 -44 0 -127 c0 -110 2 -129 18 -143
25 -23 48 -21 66 5 13 18 16 51 16 155 0 72 -5 144 -11 160 -5 15 -28 47 -50
69 l-41 41 13 64 c6 35 13 66 15 68 1 1 15 -9 31 -24 58 -55 165 -95 202 -76
46 25 18 79 -50 95 -46 10 -93 51 -136 116 -24 36 -52 73 -64 83 -33 26 -85
20 -189 -24z"/>
</g>
</svg>
